<svg width="180" height="180" viewBox="0 0 180 180" fill="none" xmlns="http://www.w3.org/2000/svg">
<g clip-path="url(#clip0_49_6)">
<rect width="180" height="180" rx="8" fill="#18181B"/>
<rect y="20" width="180" height="160" fill="url(#paint0_linear_49_6)" fill-opacity="0.3"/>
<path d="M0 0H35.643V149.703H97V180H0V0Z" fill="white"/>
<path d="M179.836 180C161.455 180 146.794 177.044 135.853 171.131C125.131 165.219 117.254 155.803 112.221 142.883C107.407 129.745 105 112.007 105 89.6715C105 67.5547 107.407 50.0365 112.221 37.1168C117.254 23.9781 125.131 14.562 135.853 8.86862C146.794 2.95621 161.455 0 179.836 0C206.094 0 225.131 7.0073 236.947 21.0219C248.982 34.8175 255 57.7007 255 89.6715C255 121.861 248.982 144.964 236.947 158.978C225.131 172.993 206.094 180 179.836 180ZM179.836 140.912C187.932 140.912 194.059 139.818 198.217 137.628C202.374 135.219 205.219 131.168 206.751 125.474C208.282 119.781 209.048 111.35 209.048 100.182V79.8175C209.048 68.6496 208.282 60.219 206.751 54.5255C205.219 48.8321 202.374 44.781 198.217 42.3723C194.059 39.9635 187.932 38.7591 179.836 38.7591C171.74 38.7591 165.613 39.9635 161.455 42.3723C157.516 44.781 154.781 48.8321 153.249 54.5255C151.718 60.219 150.952 68.6496 150.952 79.8175V100.182C150.952 111.35 151.718 119.781 153.249 125.474C154.781 131.168 157.516 135.219 161.455 137.628C165.613 139.818 171.74 140.912 179.836 140.912Z" fill="white"/>
</g>
<defs>
<linearGradient id="paint0_linear_49_6" x1="90" y1="20" x2="90" y2="180" gradientUnits="userSpaceOnUse">
<stop stop-color="#B00450" stop-opacity="0"/>
<stop offset="1" stop-color="#B00450"/>
</linearGradient>
<clipPath id="clip0_49_6">
<rect width="180" height="180" rx="8" fill="white"/>
</clipPath>
</defs>
</svg>
