<svg width="32" height="32" viewBox="0 0 32 32" fill="none" xmlns="http://www.w3.org/2000/svg">
<g clip-path="url(#clip0_49_4)">
<rect width="32" height="32" rx="2" fill="#18181B"/>
<rect y="3" width="32" height="29" fill="url(#paint0_linear_49_4)" fill-opacity="0.3"/>
<path d="M0 0H6.24672V26.6139H17V32H0V0Z" fill="white"/>
<path d="M31.9716 32C28.7856 32 26.2443 31.4745 24.3479 30.4234C22.4894 29.3723 21.124 27.6983 20.2516 25.4015C19.4172 23.0657 19 19.9124 19 15.9416C19 12.0097 19.4172 8.89538 20.2516 6.59854C21.124 4.26277 22.4894 2.58881 24.3479 1.57664C26.2443 0.525548 28.7856 0 31.9716 0C36.523 0 39.8228 1.24574 41.8709 3.73722C43.957 6.18978 45 10.2579 45 15.9416C45 21.6642 43.957 25.7713 41.8709 28.2628C39.8228 30.7543 36.523 32 31.9716 32ZM31.9716 25.0511C33.3749 25.0511 34.4369 24.8564 35.1575 24.4672C35.8782 24.0389 36.3713 23.3187 36.6368 22.3066C36.9023 21.2944 37.035 19.7956 37.035 17.8102V14.1898C37.035 12.2044 36.9023 10.7056 36.6368 9.69343C36.3713 8.68126 35.8782 7.96107 35.1575 7.53285C34.4369 7.10462 33.3749 6.89051 31.9716 6.89051C30.5682 6.89051 29.5062 7.10462 28.7856 7.53285C28.1028 7.96107 27.6287 8.68126 27.3632 9.69343C27.0977 10.7056 26.965 12.2044 26.965 14.1898V17.8102C26.965 19.7956 27.0977 21.2944 27.3632 22.3066C27.6287 23.3187 28.1028 24.0389 28.7856 24.4672C29.5062 24.8564 30.5682 25.0511 31.9716 25.0511Z" fill="white"/>
</g>
<defs>
<linearGradient id="paint0_linear_49_4" x1="16" y1="3" x2="16" y2="32" gradientUnits="userSpaceOnUse">
<stop stop-color="#B00450" stop-opacity="0"/>
<stop offset="1" stop-color="#B00450"/>
</linearGradient>
<clipPath id="clip0_49_4">
<rect width="32" height="32" rx="2" fill="white"/>
</clipPath>
</defs>
</svg>
