<svg width="16" height="16" viewBox="0 0 16 16" fill="none" xmlns="http://www.w3.org/2000/svg">
<g clip-path="url(#clip0_49_3)">
<rect width="16" height="16" rx="2" fill="#18181B"/>
<rect y="3" width="16" height="13" fill="url(#paint0_linear_49_3)" fill-opacity="0.3"/>
<path d="M0 0H3.30709V13.3069H9V16H0V0Z" fill="white"/>
<path d="M16.4858 16C14.8928 16 13.6222 15.7372 12.674 15.2117C11.7447 14.6861 11.062 13.8491 10.6258 12.7007C10.2086 11.5328 10 9.9562 10 7.9708C10 6.00487 10.2086 4.44769 10.6258 3.29927C11.062 2.13139 11.7447 1.2944 12.674 0.788321C13.6222 0.262774 14.8928 0 16.4858 0C18.7615 0 20.4114 0.622871 21.4354 1.86861C22.4785 3.09489 23 5.12895 23 7.9708C23 10.8321 22.4785 12.8856 21.4354 14.1314C20.4114 15.3771 18.7615 16 16.4858 16ZM16.4858 12.5255C17.1875 12.5255 17.7185 12.4282 18.0788 12.2336C18.4391 12.0195 18.6856 11.6594 18.8184 11.1533C18.9511 10.6472 19.0175 9.89781 19.0175 8.90511V7.09489C19.0175 6.10219 18.9511 5.3528 18.8184 4.84672C18.6856 4.34063 18.4391 3.98053 18.0788 3.76642C17.7185 3.55231 17.1875 3.44526 16.4858 3.44526C15.7841 3.44526 15.2531 3.55231 14.8928 3.76642C14.5514 3.98053 14.3144 4.34063 14.1816 4.84672C14.0489 5.3528 13.9825 6.10219 13.9825 7.09489V8.90511C13.9825 9.89781 14.0489 10.6472 14.1816 11.1533C14.3144 11.6594 14.5514 12.0195 14.8928 12.2336C15.2531 12.4282 15.7841 12.5255 16.4858 12.5255Z" fill="white"/>
</g>
<defs>
<linearGradient id="paint0_linear_49_3" x1="8" y1="3" x2="8" y2="16" gradientUnits="userSpaceOnUse">
<stop stop-color="#B00450" stop-opacity="0"/>
<stop offset="1" stop-color="#B00450"/>
</linearGradient>
<clipPath id="clip0_49_3">
<rect width="16" height="16" rx="2" fill="white"/>
</clipPath>
</defs>
</svg>
