<svg width="59" height="14" viewBox="0 0 59 14" fill="none" xmlns="http://www.w3.org/2000/svg">
<path d="M1.752 6.744C1.752 7.072 1.868 7.356 2.1 7.596C2.34 7.828 2.624 7.944 2.952 7.944H7.764C8.004 7.944 8.2 7.864 8.352 7.704C8.512 7.544 8.592 7.348 8.592 7.116V5.22H9.492V7.116C9.492 7.348 9.576 7.544 9.744 7.704C9.912 7.864 10.112 7.944 10.344 7.944H10.68C10.792 7.944 10.848 8 10.848 8.112V8.832C10.848 8.944 10.792 9 10.68 9H10.488C9.896 9 9.42 8.74 9.06 8.22C8.884 8.476 8.672 8.672 8.424 8.808C8.176 8.936 7.904 9 7.608 9H3.036C2.644 9 2.28 8.904 1.944 8.712C1.608 8.512 1.34 8.244 1.14 7.908C0.948 7.572 0.852 7.208 0.852 6.816V4.872H1.752V6.744ZM5.508 3.792H6.564V4.86H5.508V3.792ZM3.816 3.792H4.872V4.86H3.816V3.792ZM10.6758 9C10.6278 9 10.5878 8.988 10.5558 8.964C10.5238 8.932 10.5078 8.888 10.5078 8.832V8.112C10.5078 8.064 10.5278 8.024 10.5678 7.992C10.5998 7.96 10.6358 7.944 10.6758 7.944H11.1198C11.3518 7.944 11.5478 7.864 11.7078 7.704C11.8678 7.536 11.9478 7.336 11.9478 7.104V5.22H12.8478V7.104C12.8478 7.336 12.9318 7.536 13.0998 7.704C13.2678 7.864 13.4598 7.944 13.6758 7.944H13.8798C14.1438 7.944 14.3478 7.88 14.4918 7.752C14.6358 7.616 14.7318 7.436 14.7798 7.212L15.1638 5.256L16.0518 5.424L15.7278 7.044C15.7198 7.076 15.7158 7.128 15.7158 7.2C15.7158 7.408 15.7918 7.584 15.9438 7.728C16.0958 7.872 16.2838 7.944 16.5078 7.944H16.7598C16.9998 7.944 17.1998 7.864 17.3598 7.704C17.5198 7.536 17.5998 7.336 17.5998 7.104V4.86H18.4998V7.092C18.4918 7.332 18.5718 7.536 18.7398 7.704C18.9078 7.864 19.1078 7.944 19.3398 7.944H19.8078C19.8478 7.944 19.8838 7.96 19.9158 7.992C19.9558 8.024 19.9758 8.064 19.9758 8.112V8.832C19.9758 8.872 19.9598 8.912 19.9278 8.952C19.8958 8.984 19.8558 9 19.8078 9H19.4838C19.1958 9 18.9278 8.936 18.6798 8.808C18.4318 8.672 18.2198 8.476 18.0438 8.22C17.8758 8.468 17.6678 8.66 17.4198 8.796C17.1718 8.932 16.8958 9 16.5918 9C16.2878 9 16.0118 8.936 15.7638 8.808C15.5238 8.68 15.3438 8.484 15.2238 8.22C15.0798 8.476 14.8838 8.672 14.6358 8.808C14.3958 8.936 14.1318 9 13.8438 9C13.5558 9 13.2878 8.936 13.0398 8.808C12.7918 8.672 12.5798 8.476 12.4038 8.22C12.2278 8.476 12.0158 8.672 11.7678 8.808C11.5278 8.936 11.2638 9 10.9758 9H10.6758ZM19.8047 9C19.6927 9 19.6367 8.944 19.6367 8.832V8.112C19.6367 8 19.6927 7.944 19.8047 7.944H21.4247C21.8007 7.944 22.1087 7.824 22.3487 7.584C22.5967 7.336 22.7207 7.036 22.7207 6.684C22.7207 6.356 22.6127 6.044 22.3967 5.748L20.4527 3.072V2.352L24.1847 0.443999L24.5927 1.248L21.3527 2.892L23.0687 5.256C23.4127 5.712 23.5847 6.216 23.5847 6.768C23.5847 7.168 23.4887 7.54 23.2967 7.884C23.1127 8.22 22.8487 8.492 22.5047 8.7C22.1607 8.9 21.7687 9 21.3287 9H19.8047ZM26.6882 9C26.3282 9 26.0162 8.868 25.7522 8.604C25.4882 8.34 25.3562 8.024 25.3562 7.656V6.348H26.1242V7.464C26.1242 7.608 26.1602 7.724 26.2322 7.812C26.3122 7.9 26.4282 7.944 26.5802 7.944H28.4642C28.7762 7.944 29.0162 7.852 29.1842 7.668C29.3522 7.484 29.4362 7.26 29.4362 6.996C29.4362 6.788 29.3882 6.6 29.2922 6.432L27.9362 4.008L28.6922 3.528L30.0842 5.988C30.2762 6.324 30.3722 6.684 30.3722 7.068C30.3722 7.412 30.2882 7.732 30.1202 8.028C29.9602 8.324 29.7322 8.56 29.4362 8.736C29.1402 8.912 28.8042 9 28.4282 9H26.6882ZM33.8141 9C33.4701 9 33.1541 8.92 32.8661 8.76C32.5781 8.592 32.3501 8.364 32.1821 8.076C32.0221 7.788 31.9421 7.476 31.9421 7.14V1.056H32.8421V7.116C32.8421 7.348 32.9181 7.544 33.0701 7.704C33.2301 7.864 33.4261 7.944 33.6581 7.944H34.2461C34.2941 7.944 34.3341 7.964 34.3661 8.004C34.3981 8.036 34.4141 8.076 34.4141 8.124V8.832C34.4141 8.944 34.3581 9 34.2461 9H33.8141ZM34.2422 9C34.1302 9 34.0742 8.944 34.0742 8.832V8.124C34.0742 8.076 34.0902 8.036 34.1222 8.004C34.1542 7.964 34.1942 7.944 34.2422 7.944H35.7782C36.0022 7.944 36.1942 7.864 36.3542 7.704C36.5222 7.536 36.6062 7.34 36.6062 7.116V4.884H37.4942V7.128C37.4942 7.464 37.4102 7.776 37.2422 8.064C37.0742 8.352 36.8462 8.58 36.5582 8.748C36.2702 8.916 35.9582 9 35.6222 9H34.2422ZM36.1742 10.44H37.2302V11.508H36.1742V10.44ZM35.3222 11.952H36.3782V13.02H35.3222V11.952ZM34.4822 10.44H35.5382V11.508H34.4822V10.44ZM38.8388 6.252C38.8388 5.852 38.9388 5.484 39.1388 5.148C39.3388 4.812 39.6068 4.544 39.9428 4.344C40.2788 4.144 40.6468 4.044 41.0468 4.044H43.9268C44.2948 4.044 44.6348 4.136 44.9468 4.32C45.2588 4.496 45.5068 4.74 45.6908 5.052C45.8748 5.364 45.9668 5.704 45.9668 6.072V7.464C45.9668 7.736 45.8948 7.992 45.7508 8.232C45.6148 8.464 45.4268 8.652 45.1868 8.796C44.9548 8.932 44.6988 9 44.4188 9H43.0508C42.6988 9 42.3748 8.912 42.0788 8.736C41.7828 8.552 41.5468 8.312 41.3708 8.016C41.2028 7.712 41.1188 7.388 41.1188 7.044C41.1188 6.932 41.1308 6.816 41.1548 6.696L41.3468 5.664H40.7708C40.6268 5.664 40.5028 5.716 40.3988 5.82C40.3028 5.916 40.2548 6.036 40.2548 6.18V12.024H38.8388V6.252ZM44.5508 7.344V6.06C44.5508 5.956 44.5108 5.864 44.4308 5.784C44.3508 5.704 44.2548 5.664 44.1428 5.664H42.8108L42.5468 6.96C42.5308 7.056 42.5548 7.144 42.6188 7.224C42.6828 7.304 42.7668 7.344 42.8708 7.344H44.5508ZM44.8247 10.752L46.5887 10.176C46.8847 10.08 47.1247 9.912 47.3087 9.672C47.4927 9.432 47.5847 9.148 47.5847 8.82V4.608H49.0007V8.676C49.0007 9.324 48.8127 9.904 48.4367 10.416C48.0687 10.928 47.5807 11.292 46.9727 11.508L45.2567 12.096L44.8247 10.752ZM55.8809 7.332C55.9929 7.332 56.0489 7.388 56.0489 7.5V8.832C56.0489 8.944 55.9929 9 55.8809 9H54.8369L54.8489 7.332H55.8809ZM53.6249 8.88C53.4569 8.96 53.1249 9 52.6289 9H52.1609C51.8089 9 51.4849 8.912 51.1889 8.736C50.8929 8.552 50.6569 8.312 50.4809 8.016C50.3129 7.72 50.2289 7.4 50.2289 7.056C50.2289 6.944 50.2409 6.828 50.2649 6.708L50.4569 5.628C50.5369 5.18 50.7569 4.808 51.1169 4.512C51.4849 4.208 51.8969 4.056 52.3529 4.056H53.0369C53.4049 4.056 53.7409 4.148 54.0449 4.332C54.3569 4.508 54.6009 4.752 54.7769 5.064C54.9609 5.376 55.0529 5.712 55.0529 6.072V8.676C55.0529 9.324 54.8689 9.908 54.5009 10.428C54.1329 10.956 53.6449 11.324 53.0369 11.532L51.3209 12.108L50.9009 10.776L52.6289 10.188C52.9409 10.084 53.1849 9.92 53.3609 9.696C53.5369 9.472 53.6249 9.244 53.6249 9.012V8.88ZM53.6249 6.072C53.6249 5.96 53.5849 5.864 53.5049 5.784C53.4329 5.704 53.3409 5.664 53.2289 5.664H52.2089C52.0089 5.664 51.8849 5.772 51.8369 5.988L51.6569 6.96C51.6409 7.048 51.6609 7.132 51.7169 7.212C51.7809 7.292 51.8649 7.332 51.9689 7.332H53.6249V6.072ZM55.7187 7.5C55.7187 7.388 55.7747 7.332 55.8867 7.332H56.6667C56.8107 7.332 56.9307 7.284 57.0267 7.188C57.1307 7.084 57.1827 6.956 57.1827 6.804V0.719999H58.5987V6.804C58.5987 7.204 58.4987 7.572 58.2987 7.908C58.0987 8.244 57.8307 8.512 57.4947 8.712C57.1587 8.904 56.7907 9 56.3907 9H55.8867C55.8467 9 55.8107 8.984 55.7787 8.952C55.7387 8.92 55.7187 8.88 55.7187 8.832V7.5Z" fill="white"/>
</svg>
