<svg width="1512" height="167" viewBox="0 0 1512 167" fill="none" xmlns="http://www.w3.org/2000/svg">
<path d="M27.4509 121.293C22.3443 121.293 17.6025 120.02 13.2255 117.473C8.93958 114.926 5.47441 111.47 2.82993 107.104C0.276644 102.738 -1 98.0534 -1 93.0507V72.3121H15.2772V91.4134C15.2772 94.415 16.3259 97.0074 18.4232 99.1904C20.5206 101.282 23.0738 102.328 26.0831 102.328H77.7871C81.1611 102.328 83.9424 101.146 86.1309 98.781C88.4106 96.3252 89.5505 93.5509 89.5505 90.4583C89.5505 88.0024 88.821 85.774 87.362 83.7729L63.8353 51.9828V40.7949L111.025 17.1912L118.138 31.2443L80.386 50.0727L99.2621 74.6315C103.274 79.8162 105.281 85.6375 105.281 92.0956C105.281 97.0983 104.05 101.874 101.587 106.422C99.1253 110.879 95.7057 114.471 91.3287 117.2C86.9516 119.929 81.9818 121.293 76.4193 121.293H27.4509ZM127.85 121.293C124.111 121.293 121.011 120.748 118.549 119.656C116.086 118.565 113.67 116.472 111.299 113.38L88.3194 83.7729L99.2621 74.6315L117.044 97.6895C118.503 99.5087 119.916 100.737 121.284 101.373C122.743 102.01 124.704 102.328 127.166 102.328H128.807C129.263 102.328 129.674 102.51 130.038 102.874C130.494 103.238 130.722 103.693 130.722 104.239V119.247C130.722 119.702 130.494 120.156 130.038 120.611C129.674 121.066 129.218 121.293 128.67 121.293H127.85Z" fill="white"/>
<path d="M128.804 121.293C128.348 121.293 127.938 121.111 127.573 120.748C127.117 120.384 126.889 119.929 126.889 119.383V104.375C126.889 103.829 127.117 103.374 127.573 103.011C127.938 102.556 128.348 102.328 128.804 102.328H141.251C143.075 102.328 144.534 101.828 145.628 100.828C146.814 99.8271 147.589 98.4627 147.954 96.7345L153.288 71.357L169.018 74.3587L164.915 95.5065C164.824 95.8704 164.778 96.3706 164.778 97.0074C164.778 98.5537 165.28 99.8271 166.283 100.828C167.377 101.828 168.745 102.328 170.386 102.328H181.055C181.602 102.328 182.058 102.556 182.423 103.011C182.788 103.374 182.97 103.829 182.97 104.375V119.383C182.97 119.838 182.788 120.293 182.423 120.748C182.058 121.111 181.602 121.293 181.055 121.293H170.249C167.149 121.293 164.277 120.657 161.632 119.383C158.988 118.019 156.981 116.063 155.614 113.516C154.063 115.881 151.784 117.791 148.774 119.247C145.765 120.611 142.756 121.293 139.747 121.293H128.804ZM158.623 137.666H175.037V154.175H158.623V137.666ZM134.959 137.666H151.51V154.175H134.959V137.666Z" fill="white"/>
<path d="M181.033 121.293C180.486 121.293 180.03 121.111 179.665 120.748C179.3 120.293 179.118 119.792 179.118 119.247V104.239C179.118 103.693 179.3 103.238 179.665 102.874C180.03 102.51 180.486 102.328 181.033 102.328H219.332C220.974 102.328 222.341 101.828 223.436 100.828C224.621 99.7361 225.214 98.2808 225.214 96.4616V93.1871C222.478 94.0967 219.469 94.5515 216.186 94.5515H209.484C205.289 94.5515 201.505 93.5964 198.131 91.6863C194.757 89.6852 192.067 87.0474 190.061 83.7729C188.146 80.4074 187.188 76.7691 187.188 72.8578C187.188 71.3115 187.325 69.8107 187.598 68.3554L189.65 57.3039C190.653 52.1193 193.161 47.8897 197.173 44.6152C201.186 41.2497 205.882 39.567 211.262 39.567H218.511C222.706 39.567 226.536 40.613 230.001 42.7051C233.466 44.7062 236.202 47.4804 238.208 51.0278C240.214 54.4842 241.217 58.259 241.217 62.3521V96.1887C241.217 100.828 240.078 105.057 237.798 108.877C235.609 112.698 232.554 115.745 228.633 118.019C224.803 120.202 220.609 121.293 216.049 121.293H181.033ZM225.214 76.2688V62.2157C225.214 60.9423 224.758 59.8508 223.846 58.9412C223.025 58.0316 222.022 57.5768 220.837 57.5768H209.621C208.526 57.5768 207.523 57.9861 206.611 58.8047C205.699 59.5324 205.152 60.442 204.97 61.5335L203.328 71.7663C203.055 72.9488 203.283 73.9948 204.012 74.9044C204.742 75.814 205.699 76.2688 206.885 76.2688H225.214ZM207.842 11.3243H224.393L224.256 27.6969H207.842V11.3243Z" fill="white"/>
<path d="M254.266 27.1511H270.544V121.293H254.266V27.1511Z" fill="white"/>
<path d="M267.603 140.531L280.46 133.846C283.287 132.39 285.43 130.389 286.889 127.842C288.439 125.386 289.214 121.93 289.214 117.473V71.4935H305.492V97.1438C305.492 98.5991 306.084 99.8271 307.27 100.828C308.455 101.828 309.823 102.328 311.373 102.328H317.255C317.985 102.328 318.486 102.465 318.76 102.738C319.033 103.011 319.17 103.465 319.17 104.102V119.383C319.17 120.657 318.532 121.293 317.255 121.293H313.972C312.422 121.293 310.826 120.975 309.185 120.338C307.635 119.702 306.358 118.746 305.355 117.473V120.475C305.355 126.751 303.85 132.026 300.841 136.301C297.923 140.667 293.592 144.488 287.847 147.762L275.126 154.857L267.603 140.531Z" fill="white"/>
<path d="M317.282 121.293C316.735 121.293 316.279 121.111 315.914 120.748C315.549 120.293 315.367 119.792 315.367 119.247V104.239C315.367 103.784 315.595 103.374 316.051 103.011C316.415 102.556 316.826 102.328 317.282 102.328H336.295C339.577 102.328 342.313 101.146 344.502 98.781C346.781 96.3252 347.921 93.5054 347.921 90.3219C347.921 87.7751 347.237 85.5921 345.869 83.7729L322.343 51.9828V40.7949L369.396 17.1912L376.509 31.2443L338.893 50.0727L357.77 74.6315C361.782 79.8162 363.788 85.6375 363.788 92.0956C363.788 97.0983 362.557 101.874 360.095 106.422C357.633 110.879 354.168 114.471 349.699 117.2C345.322 119.929 340.352 121.293 334.79 121.293H317.282ZM316.598 22.3758L321.659 33.5637L365.84 11.3243L360.779 0L316.598 22.3758Z" fill="white"/>
<path d="M471.171 102.328C474.272 103.056 476.688 104.466 478.421 106.558C480.245 108.65 481.157 111.197 481.157 114.199V119.11C481.157 123.658 480.017 127.842 477.737 131.663C475.548 135.483 472.539 138.484 468.709 140.667C464.879 142.941 460.685 144.078 456.125 144.078H428.632C423.616 144.078 418.966 142.805 414.68 140.258C410.394 137.802 406.974 134.437 404.421 130.162C401.959 125.887 400.728 121.248 400.728 116.245V84.8644H410.987V114.744C410.987 117.837 411.762 120.702 413.312 123.34C414.862 125.978 416.96 128.07 419.604 129.616C422.34 131.253 425.303 132.072 428.495 132.072H457.493C461.323 132.072 464.515 130.662 467.068 127.842C469.621 125.114 470.898 121.794 470.898 117.882V112.698L433.419 103.966V89.3668C433.419 85.0008 434.377 80.9986 436.292 77.3603C438.298 73.7219 440.988 70.7658 444.362 68.4918C447.736 66.1269 451.475 64.6716 455.578 64.1258L471.855 62.0792L473.223 72.1757L455.031 74.6315C451.657 75.0863 448.876 76.6781 446.687 79.4069C444.499 82.0447 443.404 85.0918 443.404 88.5482V95.7794L471.171 102.328Z" fill="white"/>
<path d="M521.585 121.293C517.663 121.293 514.061 120.384 510.779 118.565C507.496 116.654 504.897 114.062 502.982 110.788C501.158 107.513 500.246 103.966 500.246 100.145V30.9714H510.505V99.8725C510.505 102.51 511.371 104.739 513.104 106.558C514.928 108.377 517.162 109.287 519.806 109.287H526.509C527.056 109.287 527.512 109.514 527.877 109.969C528.241 110.333 528.424 110.788 528.424 111.333V119.383C528.424 120.657 527.785 121.293 526.509 121.293H521.585Z" fill="white"/>
<path d="M526.464 121.293C525.187 121.293 524.549 120.657 524.549 119.383V111.333C524.549 110.788 524.731 110.333 525.096 109.969C525.461 109.514 525.917 109.287 526.464 109.287H535.628C538.638 109.287 540.963 108.559 542.604 107.104C544.337 105.557 545.477 103.511 546.024 100.964L550.401 78.8611L560.386 80.6348L556.83 99.0539C556.739 99.5087 556.693 100.145 556.693 100.964C556.693 103.42 557.514 105.421 559.155 106.967C560.796 108.514 562.985 109.287 565.721 109.287H574.338C574.885 109.287 575.341 109.514 575.706 109.969C576.071 110.333 576.253 110.788 576.253 111.333V119.383C576.253 120.657 575.615 121.293 574.338 121.293H565.584C562.21 121.293 559.201 120.566 556.556 119.11C554.003 117.564 552.134 115.336 550.948 112.425C549.58 115.063 547.392 117.2 544.382 118.837C541.464 120.475 538.41 121.293 535.218 121.293H526.464ZM554.094 137.666H566.131V149.809H554.094V137.666ZM534.808 137.666H546.845V149.809H534.808V137.666Z" fill="white"/>
<path d="M574.285 121.293C573.008 121.293 572.37 120.657 572.37 119.383V111.333C572.37 110.788 572.552 110.333 572.917 109.969C573.282 109.514 573.737 109.287 574.285 109.287H588.373C591.109 109.287 593.343 108.377 595.076 106.558C596.899 104.739 597.811 102.465 597.811 99.7361V74.3587H608.07V99.7361C608.07 103.647 607.113 107.24 605.198 110.515C603.283 113.789 600.684 116.427 597.401 118.428C594.118 120.338 590.562 121.293 586.732 121.293H574.285ZM596.033 48.0261H608.07V60.1691H596.033V48.0261Z" fill="white"/>
<path d="M641.259 121.293C637.156 121.293 633.599 119.792 630.59 116.791C627.581 113.789 626.076 110.196 626.076 106.012V91.1405H634.83V103.829C634.83 105.466 635.241 106.785 636.061 107.786C636.973 108.786 638.296 109.287 640.028 109.287H661.503C665.059 109.287 667.795 108.241 669.71 106.149C671.625 104.057 672.583 101.51 672.583 98.5082C672.583 96.1432 672.035 94.0057 670.941 92.0956L655.485 64.5351L664.102 59.0776L679.969 87.0474C682.157 90.8676 683.252 94.9608 683.252 99.3268C683.252 103.238 682.294 106.876 680.379 110.242C678.555 113.607 675.957 116.291 672.583 118.292C669.209 120.293 665.379 121.293 661.093 121.293H641.259Z" fill="white"/>
<path d="M743.804 121.293C739.336 121.293 735.187 120.202 731.357 118.019C727.618 115.745 724.609 112.698 722.329 108.877C720.049 105.057 718.909 100.919 718.909 96.4616V74.3587H729.168V95.643C729.168 99.3723 730.49 102.601 733.135 105.33C735.87 107.968 739.108 109.287 742.846 109.287H797.56C800.295 109.287 802.529 108.377 804.262 106.558C806.086 104.739 806.998 102.51 806.998 99.8725V74.3587H817.256V99.7361C817.256 103.647 816.299 107.24 814.384 110.515C812.469 113.789 809.87 116.427 806.587 118.428C803.305 120.338 799.703 121.293 795.781 121.293H743.804ZM762.133 137.666H774.17L774.306 149.945H762.133V137.666Z" fill="white"/>
<path d="M856.597 121.293C852.675 121.293 849.074 120.384 845.791 118.565C842.508 116.654 839.909 114.062 837.994 110.788C836.17 107.513 835.258 103.966 835.258 100.145V30.9714H845.517V99.8725C845.517 102.51 846.383 104.739 848.116 106.558C849.94 108.377 852.174 109.287 854.818 109.287H861.521C862.068 109.287 862.524 109.514 862.889 109.969C863.253 110.333 863.436 110.788 863.436 111.333V119.383C863.436 120.657 862.797 121.293 861.521 121.293H856.597Z" fill="white"/>
<path d="M861.476 121.293C860.199 121.293 859.561 120.657 859.561 119.383V111.333C859.561 110.788 859.743 110.333 860.108 109.969C860.473 109.514 860.929 109.287 861.476 109.287H875.565C878.3 109.287 880.534 108.377 882.267 106.558C884.091 104.739 885.003 102.465 885.003 99.7361V74.3587H895.261V99.7361C895.261 103.647 894.304 107.24 892.389 110.515C890.474 113.789 887.875 116.427 884.592 118.428C881.309 120.338 877.753 121.293 873.923 121.293H861.476ZM864.212 137.666H876.249L876.385 149.945H864.212V137.666Z" fill="white"/>
<path d="M915.847 145.443L932.124 140.122C941.152 137.12 945.666 131.117 945.666 122.112V78.3154H955.925V121.157C955.925 128.161 954.055 134.073 950.317 138.894C946.669 143.806 941.654 147.398 935.27 149.672L918.993 155.13L915.847 145.443Z" fill="white"/>
<path d="M990.698 121.293C986.594 121.293 983.038 119.792 980.028 116.791C977.019 113.789 975.515 110.196 975.515 106.012V91.1405H984.269V103.829C984.269 105.466 984.679 106.785 985.5 107.786C986.412 108.786 987.734 109.287 989.467 109.287H1010.94C1014.5 109.287 1017.23 108.241 1019.15 106.149C1021.06 104.057 1022.02 101.51 1022.02 98.5082C1022.02 96.1432 1021.47 94.0057 1020.38 92.0956L1004.92 64.5351L1013.54 59.0776L1029.41 87.0474C1031.6 90.8676 1032.69 94.9608 1032.69 99.3268C1032.69 103.238 1031.73 106.876 1029.82 110.242C1027.99 113.607 1025.39 116.291 1022.02 118.292C1018.65 120.293 1014.82 121.293 1010.53 121.293H990.698Z" fill="white"/>
<path d="M1144.81 121.293C1145.45 123.203 1145.77 125.159 1145.77 127.16V131.799C1145.77 135.892 1144.63 139.576 1142.35 142.85C1140.07 146.125 1137.01 148.672 1133.18 150.491C1129.35 152.401 1125.25 153.356 1120.87 153.356H1096.25C1091.24 153.356 1086.59 152.083 1082.3 149.536C1078.01 147.08 1074.59 143.715 1072.04 139.44C1069.58 135.255 1068.35 130.617 1068.35 125.523V92.5049H1078.61V124.022C1078.61 128.843 1080.29 132.936 1083.67 136.301C1087.04 139.667 1091.1 141.35 1095.84 141.35H1123.47C1127.12 141.35 1130.04 140.122 1132.23 137.666C1134.51 135.21 1135.64 132.163 1135.64 128.525V121.293H1108.97V109.287H1159.45C1159.9 109.287 1160.31 109.469 1160.68 109.833C1161.13 110.196 1161.36 110.651 1161.36 111.197V119.247C1161.36 119.792 1161.13 120.293 1160.68 120.748C1160.31 121.111 1159.9 121.293 1159.45 121.293H1144.81Z" fill="white"/>
<path d="M1159.49 121.293C1158.21 121.293 1157.57 120.657 1157.57 119.383V111.333C1157.57 110.788 1157.75 110.333 1158.12 109.969C1158.48 109.514 1158.94 109.287 1159.49 109.287H1168.65C1171.66 109.287 1173.99 108.559 1175.63 107.104C1177.36 105.557 1178.5 103.511 1179.05 100.964L1183.42 78.8611L1193.41 80.6348L1189.85 99.0539C1189.76 99.5087 1189.72 100.145 1189.72 100.964C1189.72 103.42 1190.54 105.421 1192.18 106.967C1193.82 108.514 1196.01 109.287 1198.74 109.287H1207.36C1207.91 109.287 1208.36 109.514 1208.73 109.969C1209.09 110.333 1209.28 110.788 1209.28 111.333V119.383C1209.28 120.657 1208.64 121.293 1207.36 121.293H1198.61C1195.23 121.293 1192.22 120.566 1189.58 119.11C1187.03 117.564 1185.16 115.336 1183.97 112.425C1182.6 115.063 1180.41 117.2 1177.41 118.837C1174.49 120.475 1171.43 121.293 1168.24 121.293H1159.49ZM1187.94 51.1642H1199.97V63.3072H1187.94V51.1642ZM1168.65 51.1642H1180.69V63.3072H1168.65V51.1642Z" fill="white"/>
<path d="M1207.31 121.293C1206.76 121.293 1206.3 121.157 1205.94 120.884C1205.58 120.52 1205.39 120.02 1205.39 119.383V111.197C1205.39 110.651 1205.62 110.196 1206.08 109.833C1206.44 109.469 1206.85 109.287 1207.31 109.287H1212.37C1215.01 109.287 1217.25 108.377 1219.07 106.558C1220.89 104.648 1221.81 102.374 1221.81 99.7361V78.3154H1232.07V99.7361C1232.07 102.374 1233.02 104.648 1234.94 106.558C1236.85 108.377 1239.04 109.287 1241.5 109.287H1243.83C1246.84 109.287 1249.16 108.559 1250.8 107.104C1252.45 105.557 1253.54 103.511 1254.09 100.964L1258.46 78.7247L1268.59 80.6348L1264.89 99.0539C1264.8 99.4178 1264.76 100.009 1264.76 100.828C1264.76 103.193 1265.62 105.194 1267.36 106.831C1269.09 108.468 1271.23 109.287 1273.78 109.287H1276.66C1279.39 109.287 1281.67 108.377 1283.5 106.558C1285.32 104.648 1286.23 102.374 1286.23 99.7361V74.2222H1296.49V99.5997C1296.4 102.328 1297.31 104.648 1299.23 106.558C1301.14 108.377 1303.42 109.287 1306.07 109.287H1311.4C1311.86 109.287 1312.27 109.469 1312.63 109.833C1313.09 110.196 1313.31 110.651 1313.31 111.197V119.383C1313.31 119.838 1313.13 120.293 1312.77 120.748C1312.4 121.111 1311.95 121.293 1311.4 121.293H1307.71C1304.42 121.293 1301.37 120.566 1298.54 119.11C1295.72 117.564 1293.3 115.336 1291.29 112.425C1289.38 115.245 1287.01 117.428 1284.18 118.974C1281.35 120.52 1278.21 121.293 1274.74 121.293C1271.28 121.293 1268.13 120.566 1265.3 119.11C1262.57 117.655 1260.52 115.426 1259.15 112.425C1257.51 115.336 1255.27 117.564 1252.45 119.11C1249.71 120.566 1246.7 121.293 1243.42 121.293C1240.14 121.293 1237.08 120.566 1234.25 119.11C1231.43 117.564 1229.01 115.336 1227 112.425C1225 115.336 1222.58 117.564 1219.75 119.11C1217.02 120.566 1214.01 121.293 1210.73 121.293H1207.31Z" fill="white"/>
<path d="M1311.36 121.293C1310.09 121.293 1309.45 120.657 1309.45 119.383V111.197C1309.45 109.923 1310.09 109.287 1311.36 109.287H1329.83C1334.12 109.287 1337.63 107.922 1340.36 105.194C1343.19 102.374 1344.6 98.963 1344.6 94.9608C1344.6 91.2315 1343.37 87.6841 1340.91 84.3186L1318.75 53.893V45.7067L1361.29 24.0131L1365.94 33.1544L1329.01 51.8464L1348.57 78.7247C1352.49 83.9093 1354.45 89.6397 1354.45 95.9159C1354.45 100.464 1353.36 104.693 1351.17 108.605C1349.07 112.425 1346.06 115.517 1342.14 117.882C1338.22 120.156 1333.75 121.293 1328.74 121.293H1311.36Z" fill="white"/>
<path d="M1389.83 121.293C1385.72 121.293 1382.17 119.792 1379.16 116.791C1376.15 113.789 1374.64 110.196 1374.64 106.012V91.1405H1383.4V103.829C1383.4 105.466 1383.81 106.785 1384.63 107.786C1385.54 108.786 1386.86 109.287 1388.6 109.287H1410.07C1413.63 109.287 1416.36 108.241 1418.28 106.149C1420.19 104.057 1421.15 101.51 1421.15 98.5082C1421.15 96.1432 1420.6 94.0057 1419.51 92.0956L1404.05 64.5351L1412.67 59.0776L1428.54 87.0474C1430.72 90.8676 1431.82 94.9608 1431.82 99.3268C1431.82 103.238 1430.86 106.876 1428.95 110.242C1427.12 113.607 1424.52 116.291 1421.15 118.292C1417.78 120.293 1413.95 121.293 1409.66 121.293H1389.83Z" fill="white"/>
<path d="M1471.05 121.293C1467.13 121.293 1463.53 120.384 1460.25 118.565C1456.96 116.654 1454.36 114.062 1452.45 110.788C1450.63 107.513 1449.71 103.966 1449.71 100.145V30.9714H1459.97V99.8725C1459.97 102.51 1460.84 104.739 1462.57 106.558C1464.4 108.377 1466.63 109.287 1469.27 109.287H1475.98C1476.52 109.287 1476.98 109.514 1477.34 109.969C1477.71 110.333 1477.89 110.788 1477.89 111.333V119.383C1477.89 120.657 1477.25 121.293 1475.98 121.293H1471.05Z" fill="white"/>
<path d="M1475.93 121.293C1474.66 121.293 1474.02 120.657 1474.02 119.383V111.333C1474.02 110.788 1474.2 110.333 1474.56 109.969C1474.93 109.514 1475.38 109.287 1475.93 109.287H1493.44C1495.99 109.287 1498.18 108.377 1500.01 106.558C1501.92 104.648 1502.88 102.419 1502.88 99.8725V74.4951H1513V100.009C1513 103.829 1512.04 107.377 1510.13 110.651C1508.21 113.926 1505.61 116.518 1502.33 118.428C1499.05 120.338 1495.49 121.293 1491.66 121.293H1475.93ZM1497.95 137.666H1509.99V149.809H1497.95V137.666ZM1488.24 154.857H1500.28V167H1488.24V154.857ZM1478.67 137.666H1490.7V149.809H1478.67V137.666Z" fill="white"/>
</svg>
